<svg xmlns="http://www.w3.org/2000/svg" viewBox="0 0 979.987 817.273">
  <path d="M439.92 1.573c-199.35 21.62-365.4 161.2-421.19 353.49-29.32 101.22-24.03 215.23 14.56 313.8 23.37 59.76 70.12 133.41 91.51 144 8.82 4.41 12.35 4.41 365.39 4.41 317.32 0 357.46-.44 364.95-3.53 5.95-2.21 12.57-8.16 20.51-18.08 46.97-58.66 82.92-137.82 98.35-215.88 5.51-28.23 5.95-34.62 5.95-87.76.22-50.28-.44-60.64-4.85-84.24-19.41-106.29-67.48-196.7-143.34-269.91-73.41-71.24-160.96-115.35-262.84-132.55-29.99-4.85-99.01-7.05-129-3.75zm134.73 73.44c72.11 15.21 133.63 45.21 190.31 92.84 111.36 93.49 167.59 243.88 144.66 387.22-10.36 64.17-35.5 126.58-71.67 177.96l-11.25 15.87-336.51-.44-336.51-.66-14.11-20.95c-29.33-43.22-54.47-103.86-64.39-154.8-33.08-172 40.35-343.34 188.76-439.05 40.57-26.46 99.01-49.62 147.3-58.66 34.84-6.4 34.84-6.4 88.21-5.73 41.91.66 52.05 1.55 75.2 6.4z"/>
  <path d="M481.82 114.923c-5.29 5.07-5.51 6.62-5.51 31.53 0 24.48.22 26.46 5.07 30.87 7.5 7.06 21.17 6.62 28.23-.88 5.07-5.29 5.29-7.28 5.29-31.09 0-24.92 0-25.36-6.17-30.65-8.39-7.06-19.86-7.06-26.91.22zM218.96 224.073c-6.62 2.65-12.35 14.33-10.58 21.83.88 3.97 8.38 13.23 19.63 24.26 15.88 15.44 19.41 17.86 26.02 17.86 14.55 0 24.04-13.23 18.96-26.24-2.42-7.06-27.12-32.42-35.28-36.83-6.62-3.52-11.69-3.74-18.75-.88zM750.85 224.303c-8.82 5.07-34.18 31.75-36.38 38.59-4.41 13.23 4.85 25.14 19.63 25.14 6.62 0 10.14-2.43 26.02-18.3 16.76-16.98 18.3-18.96 18.3-27.12 0-6.39-1.32-10.36-5.07-13.67-6.18-5.97-16.55-7.95-22.5-4.64zM119.29 481.203c-9.04 7.5-9.7 20.29-1.32 28.45 5.07 5.29 6.62 5.51 31.75 5.51h26.24l5.73-6.84c7.72-9.04 7.5-18.3-.66-26.46-6.39-6.39-6.84-6.39-30.65-6.39-22.93-.01-24.7.21-31.09 5.73zM803.33 477.673c-6.83 2.87-12.35 14.33-10.58 22.27 2.87 12.57 9.7 15.22 39.03 15.22 25.58 0 26.46-.22 31.53-5.73 7.72-8.38 7.5-19.18-.88-27.56-6.39-6.39-6.83-6.39-30.43-6.17-13.01-.02-26.02.87-28.67 1.97z"/>
</svg>
